<?xml version="1.0" encoding="UTF-8"?>
<svg id="Capa_1" xmlns="http://www.w3.org/2000/svg" version="1.1" viewBox="0 0 42 42">
  <!-- Generator: Adobe Illustrator 29.5.0, SVG Export Plug-In . SVG Version: 2.1.0 Build 137)  -->
  <defs>
    <style>
      .st0 {
        fill: #fff;
      }
    </style>
  </defs>
  <path class="st0" d="M14.9,30.5c-.5-.9-.9-1.8-1.2-2.9,0,0,0,0,0,0-.2-.7-.4-1.3-.5-1.9h-3.3v.3c.7,1.3,1.5,2.4,2.5,3.4.8.8,1.7,1.5,2.7,2l.5.3-.3-.5c-.1-.2-.3-.4-.4-.6Z"/>
  <path class="st0" d="M15.1,26.1c.3,1.3.8,2.6,1.4,3.6.6,1.2,1.4,2,2.2,2.6l.2.2v-6.7h-3.9v.3Z"/>
  <path class="st0" d="M12.8,23.7c-.1-.9-.2-1.8-.2-2.8h0c0-.9,0-1.9.2-2.8v-.2s-3.6,0-3.6,0h0c-.2,1-.3,2-.3,2.9h0c0,1,.1,1.9.3,2.8h0c0,.1,3.6.1,3.6.1v-.2Z"/>
  <path class="st0" d="M14.6,18.2c0,.2,0,.4,0,.6h0c0,.3,0,.5,0,.8h0c0,.5,0,1,0,1.5,0,.5,0,1,0,1.4h0c0,.2,0,.5,0,.7h0c0,.2,0,.4,0,.5h0s0,0,0,.1h0c0,.1,4.2.1,4.2.1v-5.9h-4.3Z"/>
  <path class="st0" d="M13.2,16.2c.4-1.8,1-3.4,1.7-4.7.1-.2.3-.4.4-.6l.3-.5-.5.3c-1,.5-1.9,1.2-2.7,2-1,1-1.9,2.2-2.5,3.5v.2c0,0,3.2,0,3.2,0h0Z"/>
  <path class="st0" d="M21,0C9.4,0,0,9.4,0,21s9.4,21,21,21,21-9.4,21-21S32.6,0,21,0ZM20.8,34.8c-7.6,0-13.8-6.2-13.8-13.8h0c0-7.5,6.2-13.6,13.7-13.8h0s0,27.5,0,27.5ZM35,16.5s0,0,0,0c0,0,0,0,0,0h0s0,0,0,0c0,5.1-4.2,9.2-9.4,9.2h0s-3.3,0-3.3,0v-2.1h3.2c4,0,7.3-3.2,7.4-7.2,0-4-3.3-7.2-7.4-7.2h0s-3.2,0-3.2,0v-2.1h3.3c5.1,0,9.3,4.2,9.4,9.2h0Z"/>
  <path class="st0" d="M16.5,12.3c-.6,1-1.1,2.3-1.4,3.8v.2s3.9,0,3.9,0v-6.7l-.2.2c-.8.6-1.6,1.4-2.2,2.6Z"/>
</svg>